<svg xmlns="http://www.w3.org/2000/svg" width="960" height="560" viewBox="0 0 960 560" role="img" aria-labelledby="title desc"><title id="title">Logical inference-state memory</title><desc id="desc">Attention KV plus fixed recurrent Mamba convolution and SSM state</desc><rect width="100%" height="100%" fill="#f8fafc"/><text x="92" y="42" font-family="Segoe UI, sans-serif" font-size="25" font-weight="700" fill="#172033">Logical inference-state memory</text><text x="92" y="70" font-family="Segoe UI, sans-serif" font-size="13" fill="#59677d">Attention KV plus fixed recurrent Mamba convolution and SSM state</text><line x1="92" y1="482.00" x2="916" y2="482.00" stroke="#dce3eb" stroke-width="1"/><text x="80" y="486.00" text-anchor="end" font-family="Consolas, monospace" font-size="11" fill="#66758a">0.0</text><line x1="92" y1="406.40" x2="916" y2="406.40" stroke="#dce3eb" stroke-width="1"/><text x="80" y="410.40" text-anchor="end" font-family="Consolas, monospace" font-size="11" fill="#66758a">13.0</text><line x1="92" y1="330.80" x2="916" y2="330.80" stroke="#dce3eb" stroke-width="1"/><text x="80" y="334.80" text-anchor="end" font-family="Consolas, monospace" font-size="11" fill="#66758a">26.0</text><line x1="92" y1="255.20" x2="916" y2="255.20" stroke="#dce3eb" stroke-width="1"/><text x="80" y="259.20" text-anchor="end" font-family="Consolas, monospace" font-size="11" fill="#66758a">39.0</text><line x1="92" y1="179.60" x2="916" y2="179.60" stroke="#dce3eb" stroke-width="1"/><text x="80" y="183.60" text-anchor="end" font-family="Consolas, monospace" font-size="11" fill="#66758a">52.0</text><line x1="92" y1="104.00" x2="916" y2="104.00" stroke="#dce3eb" stroke-width="1"/><text x="80" y="108.00" text-anchor="end" font-family="Consolas, monospace" font-size="11" fill="#66758a">65.0</text><text x="92.00" y="510" text-anchor="middle" font-family="Consolas, monospace" font-size="12" fill="#4a5870">512</text><text x="298.00" y="510" text-anchor="middle" font-family="Consolas, monospace" font-size="12" fill="#4a5870">1,024</text><text x="504.00" y="510" text-anchor="middle" font-family="Consolas, monospace" font-size="12" fill="#4a5870">2,048</text><text x="710.00" y="510" text-anchor="middle" font-family="Consolas, monospace" font-size="12" fill="#4a5870">4,096</text><text x="916.00" y="510" text-anchor="middle" font-family="Consolas, monospace" font-size="12" fill="#4a5870">8,192</text><text x="504.0" y="538" text-anchor="middle" font-family="Segoe UI, sans-serif" font-size="12" fill="#4a5870">prompt context (tokens)</text><text x="24" y="293.0" transform="rotate(-90 24 293.0)" text-anchor="middle" font-family="Segoe UI, sans-serif" font-size="12" fill="#4a5870">logical state (MiB)</text><polyline points="92.00,430.66 298.00,410.31 504.00,369.61 710.00,288.20 916.00,125.40" fill="none" stroke="#2b8cbe" stroke-width="3"/><circle cx="92.00" cy="430.66" r="5" fill="#f8fafc" stroke="#2b8cbe" stroke-width="3"/><circle cx="298.00" cy="410.31" r="5" fill="#f8fafc" stroke="#2b8cbe" stroke-width="3"/><circle cx="504.00" cy="369.61" r="5" fill="#f8fafc" stroke="#2b8cbe" stroke-width="3"/><circle cx="710.00" cy="288.20" r="5" fill="#f8fafc" stroke="#2b8cbe" stroke-width="3"/><circle cx="916.00" cy="125.40" r="5" fill="#f8fafc" stroke="#2b8cbe" stroke-width="3"/><line x1="706" y1="92" x2="726" y2="92" stroke="#2b8cbe" stroke-width="3"/><text x="732" y="96" font-family="Consolas, monospace" font-size="12" fill="#263247">1:3</text><polyline points="92.00,435.67 298.00,425.50 504.00,405.15 710.00,364.44 916.00,283.04" fill="none" stroke="#7b6fd0" stroke-width="3"/><circle cx="92.00" cy="435.67" r="5" fill="#f8fafc" stroke="#7b6fd0" stroke-width="3"/><circle cx="298.00" cy="425.50" r="5" fill="#f8fafc" stroke="#7b6fd0" stroke-width="3"/><circle cx="504.00" cy="405.15" r="5" fill="#f8fafc" stroke="#7b6fd0" stroke-width="3"/><circle cx="710.00" cy="364.44" r="5" fill="#f8fafc" stroke="#7b6fd0" stroke-width="3"/><circle cx="916.00" cy="283.04" r="5" fill="#f8fafc" stroke="#7b6fd0" stroke-width="3"/><line x1="778" y1="92" x2="798" y2="92" stroke="#7b6fd0" stroke-width="3"/><text x="804" y="96" font-family="Consolas, monospace" font-size="12" fill="#263247">1:7</text><polyline points="92.00,438.18 298.00,433.09 504.00,422.92 710.00,402.56 916.00,361.86" fill="none" stroke="#d46b5f" stroke-width="3"/><circle cx="92.00" cy="438.18" r="5" fill="#f8fafc" stroke="#d46b5f" stroke-width="3"/><circle cx="298.00" cy="433.09" r="5" fill="#f8fafc" stroke="#d46b5f" stroke-width="3"/><circle cx="504.00" cy="422.92" r="5" fill="#f8fafc" stroke="#d46b5f" stroke-width="3"/><circle cx="710.00" cy="402.56" r="5" fill="#f8fafc" stroke="#d46b5f" stroke-width="3"/><circle cx="916.00" cy="361.86" r="5" fill="#f8fafc" stroke="#d46b5f" stroke-width="3"/><line x1="850" y1="92" x2="870" y2="92" stroke="#d46b5f" stroke-width="3"/><text x="876" y="96" font-family="Consolas, monospace" font-size="12" fill="#263247">1:15</text></svg>
